<svg xmlns="http://www.w3.org/2000/svg" xmlns:xlink="http://www.w3.org/1999/xlink" viewBox="0 0 401.54 117.1"><defs><style>.cls-1{fill:url(#Degradado_sin_nombre_2);}.cls-2{fill:#64ffda;}.cls-3{fill:url(#Degradado_sin_nombre_2-2);}.cls-4,.cls-5{isolation:isolate;fill:#fff;font-family:ISOCTEUR;}.cls-4{font-size:64.85px;letter-spacing:0.35em;}.cls-5{font-size:14px;letter-spacing:0.45em;}</style><linearGradient id="Degradado_sin_nombre_2" x1="18.98" y1="41.17" x2="7.58" y2="67.61" gradientTransform="matrix(1, 0, 0, -1, 0, 120)" gradientUnits="userSpaceOnUse"><stop offset="0" stop-color="#74eba7"/><stop offset="0.58" stop-color="#2ae3bc"/></linearGradient><linearGradient id="Degradado_sin_nombre_2-2" x1="86.59" y1="111.05" x2="107.94" y2="61.46" xlink:href="#Degradado_sin_nombre_2"/></defs><title>Capa 25</title><g id="Capa_2" data-name="Capa 2"><g id="Capa_1-2" data-name="Capa 1"><g id="Capa_2-2" data-name="Capa 2"><g id="Capa_5" data-name="Capa 5"><polygon class="cls-1" points="16.73 54.2 0 54.2 21.01 101.97 37.06 101.46 16.73 54.2"/><polygon class="cls-2" points="27.23 15.07 27.23 19.39 22.83 19.39 22.83 16.66 0 54.2 16.73 54.2 41.39 13.38 27.23 15.07"/><polygon class="cls-2" points="27.23 14.39 27.23 10.07 27.23 9.99 22.83 9.99 22.83 11.66 22.83 14.39 27.23 14.39"/><rect class="cls-2" x="24.83" width="4.4" height="4.4"/><rect class="cls-2" x="18.43" y="3.2" width="4.4" height="4.4"/><polygon class="cls-3" points="94.43 15.42 76.52 13.29 101.25 54.2 118.01 54.2 94.43 15.42"/><rect class="cls-2" x="84.82" y="107.1" width="3.6" height="3.6"/><rect class="cls-2" x="90.42" y="112.7" width="4.4" height="4.4"/><polygon class="cls-2" points="118.01 54.2 101.25 54.2 80.86 101.56 91.22 101.89 91.22 97.71 95.62 97.71 95.62 102.03 96.95 102.07 118.01 54.2"/><polygon class="cls-2" points="91.22 102.71 91.22 106.89 91.22 107.1 95.62 107.1 95.62 107.03 95.62 102.71 91.22 102.71"/><polygon class="cls-2" points="85.57 76.9 84.33 37.45 96.32 54.2 85.57 76.9"/><path class="cls-2" d="M43.78,61.76l27.14-.42,1.69-11.57L45,50l1.29-15.8,30.89-.41,1.7-11.49-36.77.63L22.51,54.2l17.1,38.87,38-.14.83-11.69L43,81.8ZM39,72.2v-33l7.3,15Z"/><text class="cls-4" transform="translate(126.83 65.98)">EFRA</text><text class="cls-5" transform="translate(135.58 97.04)">CIVIL DEVELOPER</text></g></g></g></g></svg>